<svg height="511pt" viewBox="-10 1 511 511.99999" width="511pt" xmlns="http://www.w3.org/2000/svg"><path d="m369.382812 122.984375c0 67.925781-55.0625 122.988281-122.984374 122.988281-67.921876 0-122.988282-55.0625-122.988282-122.988281 0-67.921875 55.066406-122.984375 122.988282-122.984375 67.921874 0 122.984374 55.0625 122.984374 122.984375zm0 0" fill="#d9edff"/><path d="m369.382812 122.984375c0 67.921875-55.0625 122.992187-122.984374 122.992187-42.777344 0-80.449219-21.839843-102.472657-54.980468 22.335938 23.007812 53.601563 37.300781 88.210938 37.300781 67.921875 0 122.992187-55.0625 122.992187-122.984375 0-25.136719-7.535156-48.507812-20.488281-67.984375 21.503906 22.144531 34.742187 52.355469 34.742187 85.65625zm0 0" fill="#b4dbff"/><path d="m263.851562 47.488281c-4.539062 3.261719-7.632812 8.484375-10.679687 15.984375-2.480469 6.101563-4.984375 12.425782-9.621094 17.097656-7.773437 7.832032-19.632812 9.359376-30.082031 12.914063-6.101562 2.078125-25.4375 9.058594-19.589844 19.058594 3.386719 5.792969 13 4.695312 18.398438 4.007812 7.15625-.910156 15.734375 3.261719 21.171875 7.605469 3.566406 2.847656 6.582031 6.394531 10.441406 8.828125 5.164063 3.261719 11.695313 4.28125 17.605469 2.746094 6.859375-1.777344 10.902344-7.195313 16.042968-11.226563 6.21875-4.882812 12.40625-8.449218 13.554688-17.160156 1.171875-8.898438-4.222656-17.308594-5.246094-26.226562 0-11.078126 14.375-33.152344-4.820312-37.242188-5.582032-1.1875-12.546875.285156-17.175782 3.613281zm0 0" fill="#6fd6a2"/><path d="m291.089844 107.34375c-1.144532 8.710938-7.332032 12.28125-13.550782 17.160156-5.144531 4.039063-9.179687 9.445313-16.035156 11.230469-3.90625 1.011719-8.074218.914063-11.949218-.214844 6.417968-1.957031 10.34375-7.121093 15.304687-11.015625 6.21875-4.878906 12.40625-8.449218 13.550781-17.160156 1.179688-8.898438-4.21875-17.308594-5.242187-26.222656 0-10.660156 13.308593-31.496094-2.777344-36.699219 3.519531-1.027344 7.324219-1.261719 10.640625-.550781 19.191406 4.089844 4.816406 26.171875 4.816406 37.25 1.023438 8.914062 6.421875 17.324218 5.242188 26.222656zm0 0" fill="#43cd8e"/><path d="m363.515625 160.597656c-15.882813 49.53125-62.3125 85.378906-117.117187 85.378906-67.921876 0-122.984376-55.070312-122.984376-122.992187 0-6.003906.425782-11.898437 1.269532-17.671875 6.777344 2.082031 13.570312 4.039062 21.363281 1.714844 12.738281-3.804688 17.914063 2.535156 23.421875 14.882812 5.140625 11.511719 7.253906 26.210938 18.480469 31.972656 5.84375 3.003907 12.871093 2.675782 18.949219 5.152344 8.734374 3.570313 14.363281 12.394532 22.875 16.453125 10.589843 5.039063 23.269531 1.671875 33.769531-3.558593 4.429687-2.210938 10.40625-4.527344 13.761719-.875 3.9375 4.269531-.414063 12.183593 3.328124 16.617187 1.390626 1.664063 3.621094 2.371094 5.78125 2.605469 9.554688 1.003906 18.066407-5.863282 24.476563-13.011719 5.722656-6.394531 11.167969-13.898437 19.113281-17.679687 9.847656-4.710938 24.871094-5.320313 33.511719 1.011718zm0 0" fill="#6fd6a2"/><path d="m363.515625 160.597656c-.039063.132813-.078125.261719-.128906.394532-.203125.640624-.417969 1.277343-.640625 1.917968-3.886719 11.125-9.179688 21.707032-16.058594 31.261719-4.757812 6.609375-9.652344 12.332031-15.582031 17.972656-4.238281 4.027344-8.765625 7.742188-13.519531 11.140625-7.15625 5.113282-15.554688 9.652344-23.625 13.144532-11.117188 4.8125-22.8125 7.675781-34.882813 8.898437-3.308594.332031-6.769531.546875-9.960937.617187-.902344.019532-1.816407.03125-2.71875.03125-7.300782 0-14.761719-.570312-21.941407-1.949218-9.664062-1.855469-18.683593-4.753906-27.804687-8.539063-2.164063-.898437-4.304688-1.964843-6.277344-2.992187-6.851562-3.578125-13.058594-7.457032-19.152344-12.175782-.3125-.242187-.628906-.484374-.929687-.726562-9.90625-7.925781-18.257813-16.695312-25.390625-27.15625-.304688-.445312-.609375-.894531-.902344-1.339844-.03125-.03125-.054688-.0625-.0625-.089844 22.335938 22.996094 53.597656 37.289063 88.199219 37.289063 49.835937 0 92.753906-29.640625 112.078125-72.257813 7.078125-.464843 14.269531.875 19.300781 4.558594zm0 0" fill="#43cd8e"/><path d="m53.585938 456.695312h120.5v54.257813h-120.5zm0 0" fill="#ffa812"/><path d="m153.148438 456.695312h20.9375v54.257813h-20.9375zm0 0" fill="#ff9a00"/><path d="m.566406 222.101562c-.5312498 11.050782 2.175782 22.011719 7.78125 31.546876l63.890625 108.640624c7.859375 13.363282 3.484375 38.355469 3.273438 53.886719-.1875 13.902344-.375 27.804688-.5625 41.707031l85.585937-.144531-.085937-42.148437c-.003907-6.203125 1.097656-12.355469 3.257812-18.167969 2.371094-6.382813 4.746094-12.75 6.960938-19.164063 1.925781-5.589843 2.976562-11.46875 3.105469-17.378906.246093-11.5625-3.09375-23.085937-9.492188-32.726562 0 0 0 0-.003906-.003906-8.789063-13.246094-16.34375-27.277344-22.5625-41.910157l-38.457032-90.472656c-4.851562-11.417969-17.289062-17.289063-28.945312-14.25l-6.976562-120.464844c-.933594-16.164062-14.492188-29.03125-30.667969-28.371093-15.519531.636718-27.65625 12.964843-28.382813 28.121093l-1.523437 31.855469zm0 0" fill="#fed2a4"/><path d="m173.773438 360.875c-.125 5.914062-1.179688 11.796875-3.109376 17.375-2.210937 6.425781-4.589843 12.785156-6.957031 19.167969-2.15625 5.820312-3.261719 11.972656-3.253906 18.167969l.082031 42.152343-85.585937.144531v-.039062l58.191406-.105469-.082031-42.152343c0-6.195313 1.09375-12.347657 3.261718-18.167969 2.367188-6.382813 4.746094-12.742188 6.957032-19.167969 1.929687-5.578125 2.984375-11.460938 3.109375-17.375.605469-28.144531-18.855469-49.046875-30.277344-73.023438-11.84375-24.871093-20.449219-51.097656-31.210937-76.421874-2.996094-7.046876-8.882813-11.984376-15.691407-14.015626-8.085937-2.410156-13.90625-9.464843-14.507812-17.878906l-8.441407-118.488281c-.699218-12.066406-8.4375-22.304687-19.050781-26.425781 2.941407-1.125 6.121094-1.804688 9.457031-1.941406 16.175782-.664063 29.734376 12.203124 30.671876 28.367187l6.976562 120.472656c11.660156-3.042969 24.089844 2.828125 28.941406 14.246094l38.460938 90.472656c3.105468 7.320313 6.546875 14.484375 10.3125 21.472657 3.765625 6.996093 7.855468 13.816406 12.253906 20.4375 6.394531 9.648437 9.742188 21.160156 9.492188 32.726562zm0 0" fill="#ffbd86"/><path d="m160.449219 415.589844c-.003907-6.203125 1.09375-12.355469 3.257812-18.167969 2.371094-6.382813 4.746094-12.75 6.957031-19.167969 1.929688-5.585937 2.980469-11.464844 3.105469-17.375.25-11.566406-3.089843-23.085937-9.492187-32.730468-5.105469-7.695313-9.792969-15.652344-14.046875-23.839844l-14.964844-33.238282-32.007813-75.304687c-.277343-.648437-.585937-1.277344-.910156-1.890625-.050781-.09375-.097656-.191406-.148437-.289062-6.347657-11.652344-21.765625-16.113282-33.371094-9.921876-.398437.210938-.789063.433594-1.171875.664063-9.382812 5.699219-12.820312 17.6875-8.535156 27.792969l43.011718 101.382812 10.011719 22.398438c6.867188 15.359375 9.355469 32.316406 7.195313 49.003906l-4.460938 72.339844 45.308594.496094zm0 0" fill="#f4c092"/><path d="m174.085938 457.738281h-120.5l.191406-28.691406c.035156-5.5625 4.578125-10.042969 10.140625-10.007813l100.160156.671876c5.5625.039062 10.042969 4.578124 10.007813 10.140624zm0 0" fill="#fff5f5"/><path d="m174.085938 429.851562v27.886719h-20.828126v-27.886719c.03125-5.558593-4.246093-10.105468-9.8125-10.136718h20.640626c5.554687.03125 10.039062 4.578125 10 10.136718zm0 0" fill="#efe2dd"/><path d="m318.902344 511.996094v-53.449219l120.308594-.808594v54.257813zm0 0" fill="#e63950"/><path d="m318.902344 511.996094v-53.449219l120.308594-.808594v54.257813zm0 0" fill="#ffa812"/><path d="m418.386719 457.875h20.828125v54.125h-20.828125zm0 0" fill="#ff9a00"/><path d="m492.230469 222.101562c.53125 11.050782-2.175781 22.011719-7.785157 31.546876l-63.890624 108.640624c-7.859376 13.363282-3.480469 38.355469-3.269532 53.886719.1875 13.902344.375 27.804688.5625 41.707031l-85.585937-.144531.085937-42.148437c.003906-6.203125-1.097656-12.355469-3.257812-18.167969-2.375-6.382813-4.746094-12.75-6.960938-19.164063-1.925781-5.589843-2.980468-11.46875-3.105468-17.378906-.246094-11.5625 3.09375-23.085937 9.488281-32.726562 0 0 .003906 0 .003906-.003906 8.792969-13.246094 16.347656-27.277344 22.566406-41.910157l38.457031-90.472656c4.851563-11.417969 17.285157-17.289063 28.941407-14.25l6.976562-120.464844c.9375-16.164062 14.492188-29.03125 30.671875-28.371093 15.515625.636718 27.65625 12.964843 28.382813 28.121093l1.523437 31.855469zm0 0" fill="#fed2a4"/><path d="m332.347656 415.589844c.003906-6.203125-1.09375-12.355469-3.257812-18.167969-2.371094-6.382813-4.746094-12.75-6.957032-19.167969-1.929687-5.585937-2.980468-11.464844-3.109374-17.375-.246094-11.566406 3.09375-23.085937 9.496093-32.730468 5.105469-7.695313 9.792969-15.652344 14.046875-23.839844l14.964844-33.238282 32.007812-75.304687c.277344-.648437.585938-1.277344.90625-1.890625.054688-.09375.101563-.191406.152344-.289062 6.347656-11.652344 21.761719-16.113282 33.371094-9.921876.398438.210938.789062.433594 1.171875.664063 9.382813 5.699219 12.820313 17.6875 8.535156 27.792969l-43.011719 101.382812-10.011718 22.398438c-6.867188 15.359375-9.355469 32.316406-7.195313 49.003906l4.460938 71.542969-45.308594.496093zm0 0" fill="#f4c092"/><path d="m484.445312 253.648438-63.886718 108.636718c-7.863282 13.367188-3.484375 38.355469-3.273438 53.886719.1875 13.910156.375 27.8125.5625 41.714844l-23.738281-.042969c-.1875-13.890625-.375-27.773438-.5625-41.675781-.207031-15.527344-4.585937-40.515625 3.265625-53.886719l63.898438-108.636719c5.609374-9.53125 8.308593-20.492187 7.777343-31.546875l-6.195312-129.441406-1.523438-31.859375c-.550781-11.398437-7.546875-21.191406-17.589843-25.613281 3.953124-1.78125 8.339843-2.691406 12.953124-2.503906 15.515626.636718 27.65625 12.964843 28.375 28.117187l1.523438 31.859375 6.195312 129.441406c.53125 11.054688-2.167968 22.015625-7.78125 31.550782zm0 0" fill="#ffbd86"/><path d="m318.902344 458.546875 120.117187-.808594v-28.691406c-.035156-5.5625-4.578125-10.042969-10.140625-10.007813l-100.160156.671876c-5.5625.039062-10.042969 4.578124-10.007812 10.140624zm0 0" fill="#fff5f5"/><path d="m439.210938 429.179688v28.6875h-20.824219v-28.6875c.03125-5.5625-4.246094-10.105469-9.8125-10.140626h20.636719c5.558593.03125 10.042968 4.578126 10 10.140626zm0 0" fill="#efe2dd"/></svg>